<svg width="576" height="578" viewBox="0 0 576 578" fill="none" xmlns="http://www.w3.org/2000/svg">
<path d="M520.608 486.914L525.681 466.898C534.676 463.084 543.878 459.781 553.245 457.004L553.885 466.307L556.482 456.058C568.098 452.736 576 451.274 576 451.274C576 451.274 565.328 491.884 542.938 522.93L516.851 527.515L537.117 530.439C534.301 533.829 531.274 537.039 528.055 540.049C495.487 570.294 459.211 584.171 447.032 571.043C434.854 557.915 451.382 522.756 483.95 492.514C494.047 483.138 506.73 475.614 519.426 469.691L520.608 486.914Z" fill="#343434"/>
<path d="M472.364 465.172L466.365 445.414C472.094 437.498 478.264 429.911 484.847 422.69L490.202 430.323L487.13 420.206C495.359 411.358 501.368 406.021 501.368 406.021C501.368 406.021 513.212 446.304 510.087 484.46L490.124 501.875L508.987 493.897C508.327 498.257 507.394 502.57 506.192 506.813C493.938 549.546 470.055 580.185 452.847 575.246C435.639 570.306 431.623 531.66 443.876 488.927C447.675 475.679 454.646 462.679 462.454 451.043L472.364 465.172Z" fill="#343434"/>
<path d="M174.07 136.929H177.235V50.1988C177.235 43.6066 178.533 37.079 181.054 30.9886C183.576 24.8982 187.272 19.3643 191.931 14.7029C196.59 10.0415 202.121 6.34389 208.209 3.82117C214.296 1.29844 220.821 1.52588e-05 227.41 1.52588e-05H411.077C424.384 1.52588e-05 437.146 5.2888 446.556 14.7029C455.965 24.117 461.251 36.8853 461.251 50.1988V526.013C461.251 532.605 459.954 539.133 457.432 545.223C454.911 551.314 451.215 556.848 446.556 561.509C441.896 566.17 436.365 569.868 430.278 572.391C424.19 574.914 417.666 576.212 411.077 576.212H227.41C214.103 576.212 201.341 570.923 191.931 561.509C182.522 552.095 177.236 539.327 177.236 526.013V198.665H174.071L174.07 136.929Z" fill="#343434"/>
<path d="M225.385 13.0551H249.358C248.255 15.7596 247.834 18.6939 248.132 21.5994C248.43 24.5049 249.438 27.2925 251.066 29.7167C252.695 32.1408 254.894 34.127 257.471 35.5003C260.048 36.8735 262.922 37.5918 265.842 37.5917H371.062C373.982 37.5915 376.856 36.8731 379.432 35.4997C382.009 34.1263 384.208 32.1401 385.836 29.716C387.465 27.2919 388.472 24.5044 388.77 21.599C389.068 18.6936 388.647 15.7595 387.545 13.0551H409.937C419.874 13.0551 429.405 17.0047 436.432 24.0351C443.459 31.0655 447.407 40.6007 447.407 50.5431V525.667C447.407 535.609 443.459 545.144 436.432 552.175C429.405 559.205 419.874 563.155 409.937 563.155H225.385C215.447 563.155 205.917 559.205 198.89 552.175C191.863 545.144 187.915 535.609 187.915 525.667V50.5423C187.915 40.6 191.863 31.065 198.89 24.0348C205.917 17.0046 215.447 13.0551 225.385 13.0551Z" fill="white"/>
<path d="M341.177 202.32C341.178 198.999 340.304 195.736 338.644 192.861C336.984 189.985 334.596 187.597 331.72 185.938C334.594 184.277 337.855 183.403 341.174 183.402C344.493 183.402 347.754 184.276 350.629 185.936C353.503 187.596 355.89 189.984 357.55 192.86C359.21 195.736 360.083 198.998 360.083 202.319C360.083 205.64 359.21 208.902 357.55 211.778C355.89 214.654 353.503 217.042 350.629 218.702C347.754 220.362 344.493 221.236 341.174 221.236C337.855 221.235 334.594 220.361 331.72 218.7C334.595 217.041 336.983 214.654 338.644 211.779C340.304 208.903 341.178 205.641 341.177 202.32Z" fill="#CCCCCC"/>
<path d="M317.408 202.32C317.409 198.999 316.535 195.736 314.875 192.861C313.215 189.985 310.827 187.597 307.951 185.938C310.825 184.277 314.086 183.403 317.405 183.402C320.724 183.402 323.985 184.276 326.859 185.936C329.734 187.596 332.121 189.984 333.781 192.86C335.441 195.736 336.314 198.998 336.314 202.319C336.314 205.64 335.441 208.902 333.781 211.778C332.121 214.654 329.734 217.042 326.859 218.702C323.985 220.362 320.724 221.236 317.405 221.236C314.086 221.235 310.825 220.361 307.951 218.7C310.826 217.041 313.214 214.654 314.875 211.779C316.535 208.903 317.409 205.641 317.408 202.32Z" fill="#CCCCCC"/>
<path d="M294.179 221.236C283.737 221.236 275.271 212.767 275.271 202.319C275.271 191.872 283.737 183.403 294.179 183.403C304.621 183.403 313.086 191.872 313.086 202.319C313.086 212.767 304.621 221.236 294.179 221.236Z" fill="#343434"/>
<path d="M262.58 261.403H372.777C373.826 261.402 374.832 260.984 375.574 260.242C376.315 259.5 376.733 258.494 376.734 257.444V147.195C376.733 146.145 376.315 145.139 375.574 144.397C374.832 143.654 373.826 143.237 372.777 143.236H262.58C261.531 143.237 260.525 143.654 259.783 144.397C259.041 145.139 258.624 146.145 258.623 147.195V257.444C258.624 258.494 259.041 259.5 259.783 260.242C260.525 260.984 261.531 261.402 262.58 261.403ZM372.777 144.82C373.406 144.821 374.01 145.071 374.455 145.516C374.9 145.962 375.15 146.566 375.151 147.195V257.445C375.15 258.075 374.9 258.679 374.455 259.124C374.01 259.569 373.406 259.82 372.777 259.82H262.58C261.95 259.82 261.347 259.569 260.902 259.124C260.457 258.679 260.206 258.075 260.206 257.445V147.195C260.206 146.566 260.457 145.962 260.902 145.516C261.347 145.071 261.95 144.821 262.58 144.82H372.777Z" fill="black"/>
<path d="M237.974 345.915H406.983V347.498H237.974V345.915Z" fill="black"/>
<path d="M401.646 336.027C398.698 336.027 396.309 333.636 396.309 330.687C396.309 327.738 398.698 325.347 401.646 325.347C404.594 325.347 406.983 327.738 406.983 330.687C406.983 333.636 404.594 336.027 401.646 336.027Z" fill="#343434"/>
<path d="M237.974 399.311H406.983V400.895H237.974V399.311Z" fill="black"/>
<path d="M401.646 389.424C398.698 389.424 396.309 387.034 396.309 384.084C396.309 381.135 398.698 378.744 401.646 378.744C404.594 378.744 406.983 381.135 406.983 384.084C406.983 387.034 404.594 389.424 401.646 389.424Z" fill="#343434"/>
<path d="M241.067 460.117H294.479C295.401 460.116 296.286 459.749 296.938 459.096C297.591 458.443 297.957 457.558 297.958 456.635V437.906C297.957 436.983 297.591 436.098 296.938 435.445C296.286 434.792 295.401 434.425 294.479 434.424H241.067C240.145 434.425 239.26 434.792 238.608 435.445C237.955 436.098 237.588 436.983 237.587 437.906V456.635C237.588 457.558 237.955 458.443 238.608 459.096C239.26 459.749 240.145 460.116 241.067 460.117Z" fill="#343434"/>
<path d="M384.236 336.027C381.288 336.027 378.898 333.636 378.898 330.687C378.898 327.738 381.288 325.347 384.236 325.347C387.184 325.347 389.573 327.738 389.573 330.687C389.573 333.636 387.184 336.027 384.236 336.027Z" fill="#343434"/>
<path d="M366.825 336.027C363.877 336.027 361.488 333.636 361.488 330.687C361.488 327.738 363.877 325.347 366.825 325.347C369.773 325.347 372.163 327.738 372.163 330.687C372.163 333.636 369.773 336.027 366.825 336.027Z" fill="#343434"/>
<path d="M384.236 389.424C381.288 389.424 378.898 387.034 378.898 384.084C378.898 381.135 381.288 378.744 384.236 378.744C387.184 378.744 389.573 381.135 389.573 384.084C389.573 387.034 387.184 389.424 384.236 389.424Z" fill="#343434"/>
<path d="M366.825 389.424C363.877 389.424 361.488 387.034 361.488 384.084C361.488 381.135 363.877 378.744 366.825 378.744C369.773 378.744 372.163 381.135 372.163 384.084C372.163 387.034 369.773 389.424 366.825 389.424Z" fill="#343434"/>
<path d="M139.329 378.687C138.95 378.861 138.585 379.065 138.238 379.297L103.553 364.486L102.315 355.345L88.4561 355.26L89.2748 376.225L135.055 388.338C135.151 388.656 135.267 388.968 135.401 389.273C136.063 390.686 137.127 391.872 138.46 392.681C139.794 393.491 141.336 393.889 142.895 393.824C144.453 393.76 145.958 393.236 147.22 392.318C148.481 391.401 149.444 390.131 149.987 388.668C150.53 387.206 150.629 385.615 150.271 384.096C149.913 382.577 149.115 381.198 147.976 380.132C146.837 379.065 145.409 378.359 143.87 378.102C142.332 377.845 140.752 378.049 139.329 378.687Z" fill="#FFB8B8"/>
<path d="M83.4155 568.672H92.8963L97.4062 532.087L83.4139 532.087L83.4155 568.672Z" fill="#FFB8B8"/>
<path d="M99.6685 565.962H81.3844V577.48H111.181C111.181 574.425 109.968 571.496 107.809 569.336C105.65 567.176 102.722 565.962 99.6685 565.962Z" fill="#2F2E41"/>
<path d="M46.5439 565.992L55.9791 566.922L64.0532 530.955L50.1282 529.583L46.5439 565.992Z" fill="#FFB8B8"/>
<path d="M62.9837 564.889L44.7876 563.096L43.6592 574.558L73.312 577.481C73.4602 575.975 73.3106 574.456 72.8717 573.008C72.4329 571.561 71.7134 570.214 70.7543 569.045C69.7952 567.876 68.6154 566.907 67.2821 566.194C65.9488 565.481 64.4882 565.038 62.9837 564.889Z" fill="#2F2E41"/>
<path d="M80.7767 316.54C70.2869 316.54 61.7833 308.033 61.7833 297.538C61.7833 287.043 70.2869 278.535 80.7767 278.535C91.2664 278.535 99.77 287.043 99.77 297.538C99.77 308.033 91.2664 316.54 80.7767 316.54Z" fill="#FFB8B8"/>
<path d="M95.0152 561.274C95.8299 561.276 96.6192 560.99 97.2439 560.467C97.8685 559.943 98.2883 559.216 98.4293 558.413C103.337 531.16 119.377 442.047 119.76 439.579C119.769 439.522 119.773 439.465 119.772 439.408V432.763C119.773 432.521 119.697 432.285 119.556 432.089L117.437 429.119C117.337 428.976 117.205 428.859 117.051 428.775C116.898 428.691 116.728 428.643 116.553 428.636C104.472 428.069 64.908 426.408 62.9967 428.797C61.077 431.199 61.7551 438.474 61.9107 439.908L61.9032 440.057L44.1283 553.785C43.9892 554.692 44.2126 555.617 44.7502 556.361C45.2879 557.104 46.0964 557.606 47.001 557.757L58.103 559.587C58.9299 559.72 59.7769 559.552 60.4901 559.113C61.2033 558.674 61.7353 557.993 61.9892 557.195C65.4231 546.217 76.9367 509.29 80.9271 495.001C80.952 494.91 81.009 494.832 81.0875 494.78C81.1659 494.729 81.2604 494.708 81.3533 494.721C81.4462 494.734 81.5312 494.781 81.5923 494.852C81.6534 494.923 81.6864 495.014 81.6853 495.108C81.4859 508.729 81.0041 543.481 80.838 555.484L80.8198 556.777C80.8125 557.652 81.1335 558.498 81.7196 559.148C82.3056 559.798 83.1139 560.204 83.9848 560.286L94.6904 561.259C94.7992 561.269 94.9079 561.274 95.0152 561.274Z" fill="#2F2E41"/>
<path d="M92.8308 324.012C96.1455 325.983 98.1289 329.606 99.2669 333.292C101.374 340.117 102.643 347.173 103.044 354.305L104.247 375.659L119.137 432.269C106.232 443.194 98.7872 440.711 81.4147 431.775C64.0422 422.839 62.057 434.755 62.057 434.755L58.583 386.586L53.6195 333.951C54.7336 332.609 55.9946 331.396 57.3789 330.335C61.9667 326.766 67.3044 324.285 72.9897 323.079C78.675 321.874 84.5596 321.975 90.2001 323.375L92.8308 324.012Z" fill="#343434"/>
<path d="M97.6674 390.121C97.2669 390.271 96.8789 390.453 96.507 390.665L62.2119 373.492L61.6427 364.188L47.4959 363.212L46.7377 384.421L92.5688 399.584C92.943 401.19 93.797 402.644 95.0172 403.752C96.2374 404.861 97.766 405.571 99.3997 405.789C101.033 406.008 102.695 405.723 104.163 404.973C105.631 404.224 106.836 403.045 107.618 401.593C108.4 400.142 108.722 398.487 108.541 396.848C108.359 395.209 107.684 393.664 106.604 392.418C105.523 391.173 104.09 390.286 102.494 389.876C100.897 389.465 99.214 389.551 97.6674 390.121Z" fill="#FFB8B8"/>
<path d="M53.8677 334.192C45.4297 337.172 43.9433 369.451 43.9433 369.451C53.8701 363.989 65.7828 372.928 65.7828 372.928C65.7828 372.928 68.2645 364.486 71.2426 353.561C72.1419 350.488 72.2494 347.237 71.5552 344.112C70.861 340.986 69.3875 338.087 67.2721 335.684C67.2721 335.684 62.3057 331.211 53.8677 334.192Z" fill="#343434"/>
<path d="M63.7463 302.563C66.1126 300.669 69.3413 304.112 69.3413 304.112L71.2347 287.065C71.2347 287.065 83.0671 288.483 90.6398 286.592C98.2125 284.7 99.3957 293.458 99.3957 293.458C99.7861 289.921 99.8652 286.355 99.6322 282.804C99.1592 278.542 93.0061 274.28 82.1204 271.439C71.2347 268.598 65.5554 280.91 65.5554 280.91C57.9818 284.697 61.38 304.457 63.7463 302.563Z" fill="#2F2E41"/>
</svg>
